<?xml version="1.0" encoding="UTF-8" standalone="no"?>
<!DOCTYPE svg PUBLIC "-//W3C//DTD SVG 1.1//EN" "http://www.w3.org/Graphics/SVG/1.1/DTD/svg11.dtd">
<!-- Created with Vectornator (http://vectornator.io/) -->
<svg height="1080.0px" stroke-miterlimit="10" style="fill-rule:nonzero;clip-rule:evenodd;stroke-linecap:round;stroke-linejoin:round;" version="1.1" viewBox="0 0 1080 1080" width="1080.0px" xml:space="preserve" xmlns="http://www.w3.org/2000/svg" xmlns:xlink="http://www.w3.org/1999/xlink">
<defs/>
<g id="Layer-1">
<path d="M504.537 55.5992C619.88 52.425 691.204 225.341 776.545 325.374C867.309 431.765 908.915 507.673 917.936 591.792C923.027 639.265 927.234 847.113 704.866 918.549C511.335 980.721 335.335 950.272 242.259 887.1C101.356 791.468 92.4101 639.712 108.013 555.766C115.057 517.87 138.051 428.833 229.139 342.505C343.448 234.167 400.633 58.4586 504.537 55.5992Z" fill="#eb5a03" fill-rule="nonzero" opacity="1" stroke="#eb5a03" stroke-linecap="butt" stroke-linejoin="round" stroke-width="27.9172"/>
<path d="M515.707 172.916C563.085 174.729 563.993 242.419 699.563 384.49C764.248 452.278 818.658 489.912 861.449 621.173C873.904 659.38 869.275 836.069 682.114 896.195C519.225 948.523 371.091 922.895 292.752 869.725C174.158 789.234 156.102 658.71 179.761 590.851C231.185 443.355 304.684 421.205 349.38 370.867C462.089 243.931 461.416 170.839 515.707 172.916Z" fill="#ff8808" fill-rule="nonzero" opacity="1" stroke="#ff8808" stroke-linecap="butt" stroke-linejoin="round" stroke-width="23.4971"/>
</g>
<g id="Layer-2">
<text fill="#000000" font-family="MomoTrustDisplay-Regular" font-size="51.8272" opacity="1" stroke="none" text-anchor="start" transform="matrix(1 0 0 1 96.8946 477.794)" x="0" y="0">
<tspan textLength="318.633" x="264.77" y="53.1228"><![CDATA[Refurbished]]></tspan>
<tspan textLength="542.682" x="152.746" y="120.498"><![CDATA[Lenovo Chromebook]]></tspan>
<tspan textLength="694.588" x="76.7934" y="187.873"><![CDATA[(32 GB storage, 4 GB RAM)]]></tspan>
<tspan textLength="253.435" x="297.37" y="322.624"><![CDATA[~13 hours]]></tspan>
</text>
</g>
</svg>
