<?xml version="1.0" encoding="UTF-8" standalone="no"?>
<!DOCTYPE svg PUBLIC "-//W3C//DTD SVG 1.1//EN" "http://www.w3.org/Graphics/SVG/1.1/DTD/svg11.dtd">
<!-- Created with Vectornator (http://vectornator.io/) -->
<svg height="1024.0px" stroke-miterlimit="10" style="fill-rule:nonzero;clip-rule:evenodd;stroke-linecap:round;stroke-linejoin:round;" version="1.1" viewBox="0 0 1024 1024" width="1024.0px" xml:space="preserve" xmlns="http://www.w3.org/2000/svg" xmlns:xlink="http://www.w3.org/1999/xlink">
<defs/>
<g id="Layer-1">
<path d="M504.537 55.5992C619.88 52.425 691.204 225.341 776.545 325.374C867.309 431.765 908.915 507.673 917.936 591.792C923.027 639.265 927.234 847.113 704.866 918.549C511.335 980.721 335.335 950.272 242.259 887.1C101.356 791.468 92.4101 639.712 108.013 555.766C115.057 517.87 138.051 428.833 229.139 342.505C343.448 234.167 400.633 58.4586 504.537 55.5992Z" fill="#ffffff" fill-rule="nonzero" opacity="1" stroke="none"/>
<path d="M515.707 172.916C563.085 174.729 563.993 242.419 699.563 384.49C764.248 452.278 818.658 489.912 861.449 621.173C873.904 659.38 869.275 836.069 682.114 896.195C519.225 948.523 371.091 922.895 292.752 869.725C174.158 789.234 156.102 658.71 179.761 590.851C231.185 443.355 304.684 421.205 349.38 370.867C462.089 243.931 461.416 170.839 515.707 172.916Z" fill="#ffffff" fill-rule="nonzero" opacity="1" stroke="none"/>
<path d="M803.257 692.626C812.506 563.578 691.363 449.745 532.676 438.371C373.989 426.998 237.85 522.392 228.601 651.44C219.352 780.488 340.495 894.322 499.182 905.695C657.869 917.069 794.008 821.674 803.257 692.626Z" fill="#ffffff" fill-rule="nonzero" opacity="1" stroke="none"/>
<path d="M685.482 652.319C686.516 637.889 678.458 625.553 667.485 624.767C656.511 623.98 646.776 635.04 645.742 649.47C644.708 663.9 652.765 676.236 663.739 677.022C674.713 677.809 684.448 666.749 685.482 652.319Z" fill="#000000" fill-rule="nonzero" opacity="1" stroke="#000000" stroke-linecap="butt" stroke-linejoin="round" stroke-width="23.4971"/>
<path d="M383.455 654.354C385.913 640.112 379.139 626.869 368.324 624.775C357.51 622.681 346.75 632.529 344.291 646.771C341.833 661.013 348.607 674.255 359.422 676.349C370.236 678.443 380.996 668.595 383.455 654.354Z" fill="#000000" fill-rule="nonzero" opacity="1" stroke="#000000" stroke-linecap="butt" stroke-linejoin="round" stroke-width="23.4971"/>
<path d="M597.765 734.717L594.95 736.194C542.93 763.483 480.416 761.528 430.203 731.042L430.203 731.042" fill="none" opacity="1" stroke="#000000" stroke-linecap="round" stroke-linejoin="round" stroke-width="23.4971"/>
</g>
</svg>
